<svg xmlns="http://www.w3.org/2000/svg" aria-hidden="true" style="position:absolute;width:0;height:0;overflow:hidden"><defs><symbol id="icon-Ellipse-1" viewBox="0 0 32 32"><path fill="#fff" d="M32 16c0 8.837-7.163 16-16 16S0 24.837 0 16 7.163 0 16 0s16 7.163 16 16z" style="fill:var(--color1, #fff)"/></symbol><symbol id="icon-Vector-1" viewBox="0 0 21 32"><path d="M20.96 21.52V10.48h-.086v11.04h.086zm0-11.04C20.96 4.692 16.268 0 10.48 0v.086c5.74 0 10.394 4.653 10.394 10.394h.086zM10.48 0C4.692 0 0 4.692 0 10.48h.086C.086 4.74 4.739.086 10.48.086V0zM0 10.48v11.04h.086V10.48H0zm0 11.04C0 27.308 4.692 32 10.48 32v-.086C4.74 31.914.086 27.261.086 21.52H0zM10.48 32c5.788 0 10.48-4.692 10.48-10.48h-.086c0 5.74-4.653 10.394-10.394 10.394V32zm0-32.043C4.668-.043-.043 4.668-.043 10.48h.086C.043 4.716 4.716.043 10.48.043v-.086zM-.043 10.48v11.04h.086V10.48h-.086zm0 11.04c0 5.812 4.711 10.523 10.523 10.523v-.086C4.716 31.957.043 27.284.043 21.52h-.086zM10.48 32.043c5.812 0 10.523-4.711 10.523-10.523h-.086c0 5.764-4.673 10.437-10.437 10.437v.086zM21.003 21.52V10.48h-.086v11.04h.086zm0-11.04c0-5.812-4.711-10.523-10.523-10.523v.086c5.764 0 10.437 4.673 10.437 10.437h.086z"/></symbol><symbol id="icon-Oval-1" viewBox="0 0 85 32"><path d="M44.085 22.468c22.467 0 40.681-2.896 40.681-6.468S66.553 9.532 44.085 9.532C21.618 9.532 3.404 12.428 3.404 16s18.213 6.468 40.681 6.468z"/></symbol><symbol id="icon-Oval" viewBox="0 0 85 32"><path d="M42.383 22.468c22.467 0 40.681-2.896 40.681-6.468S64.851 9.532 42.383 9.532C19.916 9.532 1.702 12.428 1.702 16s18.213 6.468 40.681 6.468z"/></symbol><symbol id="icon-heroicons-solid_menu" viewBox="0 0 32 32"><path d="M4.799 8.001a1.6 1.6 0 0 1 1.6-1.6h19.2a1.6 1.6 0 0 1 0 3.2h-19.2a1.6 1.6 0 0 1-1.6-1.6zM4.799 16.001a1.6 1.6 0 0 1 1.6-1.6h19.2a1.6 1.6 0 0 1 0 3.2h-19.2a1.6 1.6 0 0 1-1.6-1.6zM4.799 24.001a1.6 1.6 0 0 1 1.6-1.6h19.2a1.6 1.6 0 0 1 0 3.2h-19.2a1.6 1.6 0 0 1-1.6-1.6z"/></symbol></defs></svg>